<svg width="56" height="56" viewBox="0 0 56 56" fill="none" xmlns="http://www.w3.org/2000/svg">
<path d="M6.71534 39.1232C6.73723 38.9628 6.95042 38.9574 6.97937 39.1165L7.54012 42.1976C7.55006 42.2522 7.58834 42.2958 7.63847 42.3096L9.5936 42.8464C9.72806 42.8834 9.72806 43.0889 9.5936 43.1258L7.63847 43.6627C7.58834 43.6764 7.55006 43.72 7.54012 43.7746L6.97937 46.8558C6.95042 47.0148 6.73723 47.0094 6.71534 46.849L6.29668 43.7819C6.28871 43.7235 6.2485 43.6762 6.19517 43.6626L4.10293 43.1263C3.96569 43.0912 3.96569 42.8811 4.10293 42.8459L6.19517 42.3096C6.2485 42.296 6.28871 42.2487 6.29668 42.1904L6.71534 39.1232Z" fill="url(#paint0_linear_4368_1579)"/>
<path d="M20.5132 7.68421C19.8214 7.68421 19.1559 7.94902 18.6532 8.42427L13.9823 12.8401C13.0371 13.7336 12.7754 15.1344 13.3341 16.3089L23.3146 37.2887C23.8119 38.334 24.8661 39 26.0237 39H35.3731C36.5307 39 37.585 38.334 38.0822 37.2887L48.0627 16.3089C48.6214 15.1344 48.3597 13.7336 47.4145 12.8401L42.8282 8.5042C42.2712 7.97761 41.5337 7.68421 40.7672 7.68421H37.9453C36.9366 7.68421 35.9955 7.17738 35.4405 6.33526L34.7903 5.34895C34.2352 4.50683 33.2941 4 32.2855 4H26.8117C26.0736 4 25.3614 4.27209 24.8113 4.76423L22.3186 6.99447C21.8222 7.43864 21.1794 7.68421 20.5132 7.68421Z" fill="url(#paint1_linear_4368_1579)" stroke="url(#paint2_linear_4368_1579)" stroke-opacity="0.4" stroke-width="0.5" stroke-linejoin="round"/>
<path d="M20.5132 7.68421C19.8214 7.68421 19.1559 7.94902 18.6532 8.42427L13.9823 12.8401C13.0371 13.7336 12.7754 15.1344 13.3341 16.3089L23.3146 37.2887C23.8119 38.334 24.8661 39 26.0237 39H35.3731C36.5307 39 37.585 38.334 38.0822 37.2887L48.0627 16.3089C48.6214 15.1344 48.3597 13.7336 47.4145 12.8401L42.8282 8.5042C42.2712 7.97761 41.5337 7.68421 40.7672 7.68421H37.9453C36.9366 7.68421 35.9955 7.17738 35.4405 6.33526L34.7903 5.34895C34.2352 4.50683 33.2941 4 32.2855 4H26.8117C26.0736 4 25.3614 4.27209 24.8113 4.76423L22.3186 6.99447C21.8222 7.43864 21.1794 7.68421 20.5132 7.68421V7.68421Z" stroke="url(#paint3_linear_4368_1579)" stroke-width="0.5" stroke-linecap="round" stroke-linejoin="round"/>
<path d="M16.9694 7.68421C16.2029 7.68421 15.4655 7.97761 14.9085 8.5042L10.3221 12.8401C9.37699 13.7336 9.11527 15.1344 9.67399 16.3089L19.6544 37.2887C20.1517 38.334 21.206 39 22.3635 39H31.713C32.8705 39 33.9248 38.334 34.4221 37.2887L44.4025 16.3089C44.9612 15.1344 44.6995 13.7336 43.7544 12.8401L39.168 8.5042C38.611 7.97761 37.8736 7.68421 37.1071 7.68421H34.3882C33.2491 7.68421 32.2082 7.03906 31.7014 6.01887L31.5258 5.66534C31.019 4.64515 29.9782 4 28.839 4H25.2375C24.0983 4 23.0575 4.64515 22.5507 5.66534L22.3751 6.01887C21.8683 7.03906 20.8274 7.68421 19.6883 7.68421H16.9694Z" fill="url(#paint4_linear_4368_1579)"/>
<path d="M22.2025 20.6926C22.2225 20.5449 22.4176 20.5399 22.4441 20.6864L22.9572 23.5242C22.9663 23.5746 23.0014 23.6147 23.0472 23.6274L24.8363 24.1219C24.9594 24.1559 24.9594 24.3452 24.8363 24.3792L23.0472 24.8737C23.0014 24.8863 22.9663 24.9265 22.9572 24.9768L22.4441 27.8147C22.4176 27.9612 22.2225 27.9562 22.2025 27.8085L21.8194 24.9834C21.8121 24.9297 21.7753 24.8862 21.7265 24.8736L19.812 24.3797C19.6864 24.3473 19.6864 24.1538 19.812 24.1214L21.7265 23.6275C21.7753 23.6149 21.8121 23.5714 21.8194 23.5176L22.2025 20.6926Z" fill="white"/>
<path fill-rule="evenodd" clip-rule="evenodd" d="M18.9673 35.8444C19.52 36.6578 20.4454 37.1578 21.4483 37.1578H30.7978C31.9554 37.1578 33.0096 36.4918 33.5069 35.4465L43.4873 14.4666C43.7335 13.9492 43.8204 13.3878 43.7598 12.8452C44.7004 13.739 44.96 15.1365 44.4024 16.3088L34.422 37.2887C33.9247 38.334 32.8704 38.9999 31.7129 38.9999H22.3634C21.2059 38.9999 20.1516 38.334 19.6543 37.2887L18.9673 35.8444Z" fill="url(#paint5_linear_4368_1579)"/>
<path fill-rule="evenodd" clip-rule="evenodd" d="M14.9083 8.5042C15.4653 7.97761 16.2028 7.68421 16.9693 7.68421H19.6882C20.8273 7.68421 21.8681 7.03906 22.3749 6.01887L22.5505 5.66534C23.0573 4.64515 24.0982 4 25.2373 4H28.8389C29.6679 4 30.4448 4.34167 31.0017 4.9209H27.0675C25.9283 4.9209 24.8875 5.56605 24.3807 6.58624L24.2051 6.93977C23.6983 7.95995 22.6574 8.60511 21.5183 8.60511H18.7994C18.0329 8.60511 17.2955 8.89851 16.7385 9.4251L12.1521 13.761C11.207 14.6545 10.9453 16.0553 11.504 17.2298L21.4844 38.2096C21.621 38.4968 21.7997 38.7553 22.011 38.9793C20.9954 38.8594 20.1005 38.2268 19.6543 37.2887L9.67384 16.3089C9.11511 15.1344 9.37683 13.7336 10.322 12.8401L14.9083 8.5042Z" fill="white"/>
<path d="M16.9694 7.68421C16.2029 7.68421 15.4655 7.97761 14.9085 8.5042L10.3221 12.8401C9.37699 13.7336 9.11527 15.1344 9.67399 16.3089L19.6544 37.2887C20.1517 38.334 21.206 39 22.3635 39H31.713C32.8705 39 33.9248 38.334 34.4221 37.2887L44.4025 16.3089C44.9612 15.1344 44.6995 13.7336 43.7544 12.8401L39.168 8.5042C38.611 7.97761 37.8736 7.68421 37.1071 7.68421H34.3882C33.2491 7.68421 32.2082 7.03906 31.7014 6.01887L31.5258 5.66534C31.019 4.64515 29.9782 4 28.839 4H25.2375C24.0983 4 23.0575 4.64515 22.5507 5.66534L22.3751 6.01887C21.8683 7.03906 20.8274 7.68421 19.6883 7.68421H16.9694Z" stroke="url(#paint6_linear_4368_1579)" stroke-width="0.5" stroke-linecap="round" stroke-linejoin="round"/>
<path d="M26.3018 16.8945L25.8763 17.977C25.7474 18.305 25.9892 18.6599 26.3417 18.6599H27.8808C28.2333 18.6599 28.4751 18.305 28.3462 17.977L27.9207 16.8945H26.3018Z" fill="url(#paint7_linear_4368_1579)" stroke="url(#paint8_linear_4368_1579)" stroke-opacity="0.4" stroke-width="0.5" stroke-linejoin="round"/>
<path d="M26.3018 16.8945L25.8763 17.977C25.7474 18.305 25.9892 18.6599 26.3417 18.6599H27.8808C28.2333 18.6599 28.4751 18.305 28.3462 17.977L27.9207 16.8945H26.3018Z" stroke="url(#paint9_linear_4368_1579)" stroke-width="0.5" stroke-linecap="round" stroke-linejoin="round"/>
<path d="M26.1933 19.5982C26.7871 19.164 27.5936 19.164 28.1873 19.5982C28.7754 20.0283 29.0186 20.7961 28.7947 21.4894C28.5704 22.1844 27.9206 22.6644 27.1903 22.6644C26.4601 22.6644 25.8102 22.1844 25.5859 21.4894C25.3621 20.7961 25.6052 20.0283 26.1933 19.5982Z" fill="url(#paint10_linear_4368_1579)"/>
<path d="M26.8952 19.085C27.0709 18.9564 27.3097 18.9564 27.4855 19.085L28.881 20.1055C29.0551 20.2328 29.1279 20.4574 29.0616 20.6627L28.5273 22.318C28.4606 22.5245 28.2684 22.6644 28.0515 22.6644H26.3292C26.1122 22.6644 25.92 22.5245 25.8534 22.318L25.319 20.6627C25.2528 20.4574 25.3256 20.2328 25.4997 20.1055L26.8952 19.085Z" stroke="url(#paint11_linear_4368_1579)" stroke-width="0.5" stroke-linecap="round" stroke-linejoin="round"/>
<path d="M17.4302 7.68457L22.1679 14.2699C24.5622 17.5979 29.5147 17.5979 31.9089 14.2699L36.6467 7.68457" stroke="url(#paint12_linear_4368_1579)" stroke-linecap="round" stroke-linejoin="round"/>
<path d="M21.0859 47H28.742C29.1118 47 29.4515 47.2041 29.625 47.5307L32.0001 52H18.4287L21.0859 47Z" fill="url(#paint13_linear_4368_1579)" stroke="url(#paint14_linear_4368_1579)" stroke-opacity="0.4" stroke-width="0.5" stroke-linejoin="round"/>
<path d="M9.65714 47H24.9143L27.5714 52H7L9.65714 47Z" fill="url(#paint15_linear_4368_1579)"/>
<path opacity="0.7" fill-rule="evenodd" clip-rule="evenodd" d="M7.53143 51L7 52H27.5714L24.9143 47H23.4457L24.7906 49.5307C25.1446 50.1968 24.6618 51 23.9076 51H7.53143Z" fill="#FFC875"/>
<path fill-rule="evenodd" clip-rule="evenodd" d="M24.9143 47H9.65714L7 52H8.53143L10.3751 48.5307C10.5487 48.2041 10.8883 48 11.2582 48H25.4457L24.9143 47Z" fill="white"/>
<path d="M9.3751 47.5307C9.54866 47.2041 9.88831 47 10.2582 47H24.3133C24.6831 47 25.0228 47.2041 25.1963 47.5307L27.5714 52H7L9.3751 47.5307Z" stroke="url(#paint16_linear_4368_1579)" stroke-width="0.5" stroke-linecap="round" stroke-linejoin="round"/>
<path d="M29.0859 42H36.742C37.1118 42 37.4515 42.2041 37.625 42.5307L40.0001 47H26.4287L29.0859 42Z" fill="url(#paint17_linear_4368_1579)" stroke="url(#paint18_linear_4368_1579)" stroke-opacity="0.4" stroke-width="0.5" stroke-linejoin="round"/>
<path d="M32.0001 42H36.742C37.1118 42 37.4515 42.2041 37.625 42.5307L40.0001 47H26.4287" stroke="url(#paint19_linear_4368_1579)" stroke-width="0.5" stroke-linecap="round" stroke-linejoin="round"/>
<path d="M17.6571 42H32.9143L35.5714 47H15L17.6571 42Z" fill="#FFEEBD"/>
<path opacity="0.6" fill-rule="evenodd" clip-rule="evenodd" d="M15.5314 46L15 47H35.5714L32.9143 42H31.4457L32.7906 44.5307C33.1446 45.1968 32.6618 46 31.9076 46H15.5314Z" fill="#FFC875"/>
<path fill-rule="evenodd" clip-rule="evenodd" d="M32.3133 42H17.6571L15 47H16.5314L18.3751 43.5307C18.5487 43.2041 18.8883 43 19.2582 43H33.4457L33.1963 42.5307C33.0228 42.2041 32.6831 42 32.3133 42Z" fill="white"/>
<path d="M17.3751 42.5307C17.5487 42.2041 17.8883 42 18.2582 42H32.3133C32.6831 42 33.0228 42.2041 33.1963 42.5307L35.5714 47H15L17.3751 42.5307Z" stroke="url(#paint20_linear_4368_1579)" stroke-width="0.5" stroke-linecap="round" stroke-linejoin="round"/>
<path d="M36.0576 47.0531C36.075 47.0204 36.109 47 36.146 47H44.2829C44.3199 47 44.3538 47.0204 44.3712 47.0531L46.9221 51.8531C46.9575 51.9197 46.9092 52 46.8338 52H33.5951C33.5197 52 33.4714 51.9197 33.5068 51.8531L36.0576 47.0531Z" fill="#FF5C00" stroke="url(#paint21_linear_4368_1579)" stroke-opacity="0.4" stroke-width="0.5" stroke-linejoin="round"/>
<path d="M39.0001 47H43.742C44.1118 47 44.4515 47.2041 44.625 47.5307L47.0001 52H33.4287" stroke="url(#paint22_linear_4368_1579)" stroke-width="0.5" stroke-linecap="round" stroke-linejoin="round"/>
<path d="M24.3751 47.5307C24.5487 47.2041 24.8883 47 25.2582 47H39.3133C39.6831 47 40.0228 47.2041 40.1963 47.5307L42.5714 52H22L24.3751 47.5307Z" fill="url(#paint23_linear_4368_1579)"/>
<path opacity="0.7" fill-rule="evenodd" clip-rule="evenodd" d="M22.5314 51L22 52H42.5714L39.9143 47H38.4457L39.7906 49.5307C40.1446 50.1968 39.6618 51 38.9076 51H22.5314Z" fill="#FFC875"/>
<path fill-rule="evenodd" clip-rule="evenodd" d="M25.2582 47C24.8883 47 24.5487 47.2041 24.3751 47.5307L22 52H23.5314L25.3751 48.5307C25.5487 48.2041 25.8883 48 26.2582 48H40.4457L40.1963 47.5307C40.0228 47.2041 39.6831 47 39.3133 47H25.2582Z" fill="white"/>
<path d="M24.3751 47.5307C24.5487 47.2041 24.8883 47 25.2582 47H39.3133C39.6831 47 40.0228 47.2041 40.1963 47.5307L42.5714 52H22L24.3751 47.5307Z" stroke="url(#paint24_linear_4368_1579)" stroke-width="0.5" stroke-linecap="round" stroke-linejoin="round"/>
<path d="M27.5 39.5V46.5" stroke="url(#paint25_linear_4368_1579)" stroke-linecap="square" stroke-linejoin="round"/>
<defs>
<linearGradient id="paint0_linear_4368_1579" x1="8.52206" y1="39.4196" x2="2.90053" y2="47.1129" gradientUnits="userSpaceOnUse">
<stop stop-color="#DBEEFF"/>
<stop offset="1" stop-color="#85C5FF"/>
</linearGradient>
<linearGradient id="paint1_linear_4368_1579" x1="60.3535" y1="61.6684" x2="51.1367" y2="-1.41083" gradientUnits="userSpaceOnUse">
<stop stop-color="#001BC1"/>
<stop offset="1" stop-color="#12B3FD"/>
</linearGradient>
<linearGradient id="paint2_linear_4368_1579" x1="49.7182" y1="59.8772" x2="-3.03123" y2="54.1787" gradientUnits="userSpaceOnUse">
<stop stop-color="white"/>
<stop offset="1" stop-color="white" stop-opacity="0"/>
</linearGradient>
<linearGradient id="paint3_linear_4368_1579" x1="12.397" y1="59.0097" x2="48.7146" y2="-5.04917" gradientUnits="userSpaceOnUse">
<stop stop-color="#1B217C"/>
<stop offset="1" stop-color="#1B217C" stop-opacity="0"/>
</linearGradient>
<linearGradient id="paint4_linear_4368_1579" x1="37.8038" y1="5.84211" x2="17.1032" y2="47.3202" gradientUnits="userSpaceOnUse">
<stop stop-color="#DBEEFF"/>
<stop offset="1" stop-color="#85C5FF"/>
</linearGradient>
<linearGradient id="paint5_linear_4368_1579" x1="31.8304" y1="12.8452" x2="31.8304" y2="38.9999" gradientUnits="userSpaceOnUse">
<stop stop-color="#B2DBFF"/>
<stop offset="1" stop-color="#64B6FF"/>
</linearGradient>
<linearGradient id="paint6_linear_4368_1579" x1="8.73682" y1="59.0097" x2="45.0544" y2="-5.04917" gradientUnits="userSpaceOnUse">
<stop stop-color="#1B217C"/>
<stop offset="1" stop-color="#1B217C" stop-opacity="0"/>
</linearGradient>
<linearGradient id="paint7_linear_4368_1579" x1="29.5472" y1="19.9377" x2="29.1866" y2="16.3421" gradientUnits="userSpaceOnUse">
<stop stop-color="#001BC1"/>
<stop offset="1" stop-color="#12B3FD"/>
</linearGradient>
<linearGradient id="paint8_linear_4368_1579" x1="28.6736" y1="19.8368" x2="24.396" y2="19.1634" gradientUnits="userSpaceOnUse">
<stop stop-color="white"/>
<stop offset="1" stop-color="white" stop-opacity="0"/>
</linearGradient>
<linearGradient id="paint9_linear_4368_1579" x1="25.6079" y1="19.6691" x2="27.0176" y2="15.9312" gradientUnits="userSpaceOnUse">
<stop stop-color="#1B217C"/>
<stop offset="1" stop-color="#1B217C" stop-opacity="0"/>
</linearGradient>
<linearGradient id="paint10_linear_4368_1579" x1="28.7321" y1="24.4917" x2="26.6593" y2="18.4421" gradientUnits="userSpaceOnUse">
<stop stop-color="#FFA600"/>
<stop offset="1" stop-color="#FFEEBD"/>
</linearGradient>
<linearGradient id="paint11_linear_4368_1579" x1="25.208" y1="24.8341" x2="29.3035" y2="18.1734" gradientUnits="userSpaceOnUse">
<stop stop-color="#1B217C"/>
<stop offset="1" stop-color="#1B217C" stop-opacity="0"/>
</linearGradient>
<linearGradient id="paint12_linear_4368_1579" x1="21.548" y1="20.1188" x2="19.0114" y2="4.8795" gradientUnits="userSpaceOnUse">
<stop stop-color="#1B217C"/>
<stop offset="1" stop-color="#1B217C" stop-opacity="0"/>
</linearGradient>
<linearGradient id="paint13_linear_4368_1579" x1="40.2422" y1="55.6193" x2="39.912" y2="45.3434" gradientUnits="userSpaceOnUse">
<stop stop-color="#001BC1"/>
<stop offset="1" stop-color="#12B3FD"/>
</linearGradient>
<linearGradient id="paint14_linear_4368_1579" x1="32.5216" y1="55.3333" x2="1.31137" y2="40.0037" gradientUnits="userSpaceOnUse">
<stop stop-color="white"/>
<stop offset="1" stop-color="white" stop-opacity="0"/>
</linearGradient>
<linearGradient id="paint15_linear_4368_1579" x1="25.2857" y1="54.4074" x2="24.5168" y2="45.5687" gradientUnits="userSpaceOnUse">
<stop stop-color="#FFA600"/>
<stop offset="1" stop-color="#FFEEBD"/>
</linearGradient>
<linearGradient id="paint16_linear_4368_1579" x1="7" y1="54.8585" x2="8.84296" y2="43.0536" gradientUnits="userSpaceOnUse">
<stop stop-color="#1B217C"/>
<stop offset="1" stop-color="#1B217C" stop-opacity="0"/>
</linearGradient>
<linearGradient id="paint17_linear_4368_1579" x1="45.5192" y1="48.5543" x2="45.2898" y2="42.2039" gradientUnits="userSpaceOnUse">
<stop stop-color="#FFA600"/>
<stop offset="1" stop-color="#FF8400"/>
</linearGradient>
<linearGradient id="paint18_linear_4368_1579" x1="41.2739" y1="48.3775" x2="23.3868" y2="40.5624" gradientUnits="userSpaceOnUse">
<stop stop-color="white"/>
<stop offset="1" stop-color="white" stop-opacity="0"/>
</linearGradient>
<linearGradient id="paint19_linear_4368_1579" x1="36.5001" y1="55" x2="27.0554" y2="47.1775" gradientUnits="userSpaceOnUse">
<stop stop-color="#1B217C"/>
<stop offset="1" stop-color="#1B217C" stop-opacity="0"/>
</linearGradient>
<linearGradient id="paint20_linear_4368_1579" x1="15" y1="49.8585" x2="16.843" y2="38.0536" gradientUnits="userSpaceOnUse">
<stop stop-color="#1B217C"/>
<stop offset="1" stop-color="#1B217C" stop-opacity="0"/>
</linearGradient>
<linearGradient id="paint21_linear_4368_1579" x1="47.2665" y1="55.3333" x2="28.6516" y2="50.6635" gradientUnits="userSpaceOnUse">
<stop stop-color="white"/>
<stop offset="1" stop-color="white" stop-opacity="0"/>
</linearGradient>
<linearGradient id="paint22_linear_4368_1579" x1="43.5001" y1="60" x2="34.0554" y2="52.1775" gradientUnits="userSpaceOnUse">
<stop stop-color="#1B217C"/>
<stop offset="1" stop-color="#1B217C" stop-opacity="0"/>
</linearGradient>
<linearGradient id="paint23_linear_4368_1579" x1="40.2857" y1="54.4074" x2="39.5168" y2="45.5687" gradientUnits="userSpaceOnUse">
<stop stop-color="#FFA600"/>
<stop offset="1" stop-color="#FFEEBD"/>
</linearGradient>
<linearGradient id="paint24_linear_4368_1579" x1="22" y1="54.8585" x2="23.843" y2="43.0536" gradientUnits="userSpaceOnUse">
<stop stop-color="#1B217C"/>
<stop offset="1" stop-color="#1B217C" stop-opacity="0"/>
</linearGradient>
<linearGradient id="paint25_linear_4368_1579" x1="27.125" y1="44.882" x2="30.6832" y2="44.0233" gradientUnits="userSpaceOnUse">
<stop stop-color="#1B217C"/>
<stop offset="1" stop-color="#1B217C" stop-opacity="0"/>
</linearGradient>
</defs>
</svg>
