<svg width="64" height="516" viewBox="0 0 64 516" fill="none" xmlns="http://www.w3.org/2000/svg">
<path d="M25 0C25 15.836 23.614 23.5626 22.1776 31.5699L22.1571 31.6845C20.6007 40.3611 19 49.3615 19 66.9C19 84.4386 20.6008 93.4389 22.157 102.117L22.1773 102.229C23.6137 110.238 25 117.968 25 133.81C25 149.645 23.6142 157.372 22.1779 165.38L22.157 165.496C20.6007 174.174 19 183.177 19 200.72C19 218.259 20.6008 227.259 22.157 235.937L22.1773 236.049C23.6137 244.058 25 251.788 25 267.63C25 283.465 23.6142 291.192 22.1779 299.2L22.157 299.316C20.6007 307.994 19 316.997 19 334.54C19 352.079 20.6008 361.079 22.157 369.757L22.1773 369.869C23.6137 377.878 25 385.608 25 401.45C25 417.291 23.614 425.018 22.1777 433.025L22.1571 433.139C20.6007 441.816 19 450.817 19 468.36C19 484.174 20.3015 493.047 21.6983 501H42.0138C41.9569 500.681 41.8999 500.363 41.843 500.046L41.8221 499.93C40.3858 491.922 39 484.195 39 468.36C39 452.519 40.386 444.792 41.8223 436.785L41.8429 436.671C43.3993 427.994 45 418.993 45 401.45C45 383.907 43.3993 374.904 41.843 366.226L41.8221 366.11C40.3858 358.102 39 350.375 39 334.54C39 318.698 40.3863 310.968 41.8227 302.959L41.843 302.847C43.3993 294.169 45 285.169 45 267.63C45 250.087 43.3993 241.084 41.843 232.406L41.8221 232.29C40.3858 224.282 39 216.555 39 200.72C39 184.878 40.3863 177.148 41.8227 169.139L41.843 169.027C43.3993 160.349 45 151.349 45 133.81C45 116.267 43.3993 107.264 41.843 98.586L41.8221 98.4698C40.3858 90.4616 39 82.7349 39 66.9C39 51.0641 40.386 43.3374 41.8224 35.3301L41.8429 35.2155C43.3993 26.5389 45 17.5386 45 0H25Z" fill="url(#paint0_linear_2692_276757)"/>
<g style="mix-blend-mode:overlay" opacity="0.9">
<path fill-rule="evenodd" clip-rule="evenodd" d="M32.7579 29.1535C33.3021 29.2478 33.6668 29.7654 33.5725 30.3096C33.3785 31.429 33.1812 32.529 32.9845 33.6256C32.7875 34.7235 32.591 35.8189 32.3982 36.9319C32.3039 37.476 31.7863 37.8407 31.2421 37.7464C30.6979 37.6521 30.3332 37.1345 30.4275 36.5904C30.6215 35.471 30.8188 34.3711 31.0155 33.2745L31.0157 33.2734C31.2126 32.1756 31.409 31.081 31.6018 29.9681C31.6961 29.4239 32.2137 29.0592 32.7579 29.1535ZM29.0342 62.5271C29.5864 62.5342 30.0283 62.9877 30.0212 63.5399C30.0072 64.6212 30 65.7403 30 66.9C30 68.0599 30.0072 69.1791 30.0212 70.2605C30.0283 70.8128 29.5864 71.2662 29.0342 71.2733C28.482 71.2805 28.0285 70.8386 28.0214 70.2863C28.0073 69.196 28 68.0682 28 66.9C28 65.7319 28.0073 64.6042 28.0214 63.5141C28.0285 62.9619 28.482 62.52 29.0342 62.5271ZM31.2427 96.0579C31.7869 95.9636 32.3045 96.3283 32.3988 96.8725C32.5914 97.9841 32.7875 99.0774 32.9842 100.174L32.9849 100.178C33.1817 101.275 33.3791 102.376 33.5731 103.496C33.6674 104.04 33.3027 104.558 32.7585 104.652C32.2143 104.746 31.6967 104.381 31.6024 103.837C31.4096 102.724 31.2133 101.629 31.0163 100.531L31.0151 100.525C30.8188 99.4297 30.6218 98.3315 30.4282 97.214C30.3339 96.6698 30.6986 96.1522 31.2427 96.0579ZM34.9658 129.437C35.5181 129.429 35.9715 129.871 35.9786 130.424C35.9927 131.514 36 132.642 36 133.81C36 134.978 35.9927 136.106 35.9786 137.196C35.9715 137.749 35.518 138.19 34.9658 138.183C34.4136 138.176 33.9717 137.723 33.9788 137.171C33.9928 136.089 34 134.97 34 133.81C34 132.65 33.9928 131.531 33.9788 130.449C33.9717 129.897 34.4136 129.444 34.9658 129.437ZM32.7573 162.968C33.3014 163.062 33.6661 163.58 33.5718 164.124C33.3782 165.242 33.1812 166.34 32.9848 167.435L32.9837 167.441C32.7867 168.539 32.5904 169.634 32.3975 170.747C32.3033 171.291 31.7857 171.656 31.2415 171.562C30.6973 171.468 30.3326 170.95 30.4269 170.406C30.6209 169.286 30.8183 168.185 31.0151 167.088L31.0158 167.084C31.2125 165.987 31.4086 164.894 31.6012 163.782C31.6955 163.238 32.2131 162.874 32.7573 162.968ZM29.0342 196.347C29.5864 196.354 30.0283 196.807 30.0212 197.359C30.0072 198.441 30 199.56 30 200.72C30 201.88 30.0072 202.999 30.0212 204.081C30.0283 204.633 29.5864 205.086 29.0342 205.093C28.482 205.1 28.0285 204.659 28.0214 204.106C28.0073 203.016 28 201.888 28 200.72C28 199.552 28.0073 198.424 28.0214 197.334C28.0285 196.781 28.4819 196.339 29.0342 196.347ZM31.2427 229.878C31.7869 229.784 32.3045 230.148 32.3988 230.692C32.5914 231.804 32.7875 232.897 32.9842 233.994L32.9849 233.998C33.1817 235.095 33.3791 236.196 33.5731 237.316C33.6674 237.86 33.3027 238.378 32.7585 238.472C32.2143 238.566 31.6967 238.201 31.6025 237.657C31.4096 236.544 31.2133 235.449 31.0163 234.351L31.0153 234.345C30.8189 233.25 30.6219 232.152 30.4282 231.034C30.3339 230.49 30.6986 229.972 31.2427 229.878ZM34.9658 263.257C35.5181 263.249 35.9715 263.691 35.9786 264.244C35.9927 265.334 36 266.462 36 267.63C36 268.798 35.9927 269.926 35.9786 271.016C35.9715 271.569 35.518 272.01 34.9658 272.003C34.4136 271.996 33.9717 271.543 33.9788 270.991C33.9928 269.909 34 268.79 34 267.63C34 266.47 33.9928 265.351 33.9788 264.269C33.9717 263.717 34.4136 263.264 34.9658 263.257ZM32.7573 296.788C33.3014 296.882 33.6661 297.4 33.5718 297.944C33.3783 299.061 33.1815 300.158 32.9852 301.253L32.9837 301.261C32.7867 302.359 32.5904 303.454 32.3975 304.567C32.3033 305.111 31.7857 305.476 31.2415 305.382C30.6973 305.288 30.3326 304.77 30.4269 304.226C30.6209 303.106 30.8183 302.005 31.0151 300.908L31.0156 300.905C31.2123 299.808 31.4085 298.715 31.6012 297.603C31.6955 297.058 32.2131 296.694 32.7573 296.788ZM29.0342 330.167C29.5864 330.174 30.0283 330.627 30.0212 331.179C30.0072 332.261 30 333.38 30 334.54C30 335.7 30.0072 336.819 30.0212 337.901C30.0283 338.453 29.5864 338.906 29.0342 338.913C28.482 338.921 28.0285 338.479 28.0214 337.926C28.0073 336.836 28 335.708 28 334.54C28 333.372 28.0073 332.244 28.0214 331.154C28.0285 330.601 28.4819 330.159 29.0342 330.167ZM31.2427 363.698C31.7869 363.604 32.3045 363.968 32.3988 364.513C32.5915 365.625 32.7877 366.718 32.9844 367.815L32.9849 367.818C33.1817 368.915 33.3791 370.016 33.5731 371.136C33.6674 371.68 33.3027 372.198 32.7585 372.292C32.2143 372.386 31.6967 372.021 31.6025 371.477C31.4096 370.364 31.2133 369.269 31.0163 368.171L31.0148 368.163C30.8185 367.068 30.6217 365.971 30.4282 364.854C30.3339 364.31 30.6986 363.792 31.2427 363.698ZM34.9658 397.077C35.5181 397.069 35.9715 397.511 35.9786 398.064C35.9927 399.154 36 400.282 36 401.45C36 402.618 35.9927 403.746 35.9786 404.836C35.9715 405.389 35.518 405.83 34.9658 405.823C34.4136 405.816 33.9717 405.363 33.9788 404.811C33.9928 403.729 34 402.61 34 401.45C34 400.29 33.9928 399.171 33.9788 398.089C33.9717 397.537 34.4136 397.084 34.9658 397.077ZM32.758 430.608C33.3022 430.702 33.6668 431.22 33.5725 431.764C33.3786 432.883 33.1813 433.983 32.9845 435.08L32.9843 435.082C32.7873 436.18 32.591 437.274 32.3981 438.387C32.3038 438.932 31.7862 439.296 31.242 439.202C30.6978 439.108 30.3332 438.59 30.4275 438.046C30.6214 436.926 30.8188 435.826 31.0155 434.73L31.0157 434.728C31.2127 433.63 31.409 432.536 31.6019 431.423C31.6962 430.878 32.2138 430.514 32.758 430.608ZM29.0342 463.987C29.5864 463.994 30.0283 464.447 30.0212 464.999C30.0072 466.081 30 467.2 30 468.36C30 469.52 30.0072 470.639 30.0212 471.72C30.0283 472.273 29.5864 472.726 29.0342 472.733C28.482 472.74 28.0285 472.299 28.0214 471.746C28.0073 470.656 28 469.528 28 468.36C28 467.192 28.0073 466.064 28.0214 464.974C28.0285 464.421 28.482 463.979 29.0342 463.987Z" fill="white"/>
</g>
<path d="M42.1022 22.56H41.1003C40.5372 22.56 40.0851 22.0952 40.1007 21.5323L40.4722 8.11C40.4822 7.6 40.3622 7.11 40.1022 6.67L39.3522 5.37C38.8622 4.52 37.9622 4 36.9822 4H28.3422C27.3622 4 26.4622 4.52 25.9722 5.37L25.2222 6.67C24.9722 7.11 24.8422 7.61 24.8522 8.11L25.2238 21.5323C25.2394 22.0952 24.7873 22.56 24.2242 22.56H23.2222C23.0722 22.56 22.9622 22.71 23.0122 22.86L23.2422 23.55C23.2722 23.64 23.3622 23.7 23.4522 23.7H25.2722L25.5622 34.07C25.5822 34.75 25.8522 35.4 26.3222 35.89C26.8422 36.43 27.5522 36.73 28.2922 36.73H36.9922C37.7322 36.73 38.4522 36.43 38.9622 35.89C39.4322 35.4 39.7022 34.75 39.7222 34.07L40.0122 23.7H41.8322C41.9322 23.7 42.0122 23.64 42.0422 23.55L42.2722 22.86C42.3222 22.71 42.2122 22.56 42.0622 22.56H42.1022Z" fill="#F58E34"/>
<g style="mix-blend-mode:overlay">
<path fill-rule="evenodd" clip-rule="evenodd" d="M39.655 34.6H25.6294C25.7387 35.0821 25.9763 35.5294 26.3222 35.89C26.8422 36.43 27.5522 36.73 28.2922 36.73H36.9922C37.7322 36.73 38.4522 36.43 38.9622 35.89C39.3081 35.5294 39.5456 35.0821 39.655 34.6Z" fill="#686868"/>
</g>
<path d="M42.1022 22.56H41.1003C40.5372 22.56 40.0851 22.0952 40.1007 21.5323L40.4722 8.11C40.4822 7.6 40.3622 7.11 40.1022 6.67L39.3522 5.37C38.8622 4.52 37.9622 4 36.9822 4H28.3422C27.3622 4 26.4622 4.52 25.9722 5.37L25.2222 6.67C24.9722 7.11 24.8422 7.61 24.8522 8.11L25.2238 21.5323C25.2394 22.0952 24.7873 22.56 24.2242 22.56H23.2222C23.0722 22.56 22.9622 22.71 23.0122 22.86L23.2422 23.55C23.2722 23.64 23.3622 23.7 23.4522 23.7H25.2722L25.5622 34.07C25.5822 34.75 25.8522 35.4 26.3222 35.89C26.8422 36.43 27.5522 36.73 28.2922 36.73H36.9922C37.7322 36.73 38.4522 36.43 38.9622 35.89C39.4322 35.4 39.7022 34.75 39.7222 34.07L40.0122 23.7H41.8322C41.9322 23.7 42.0122 23.64 42.0422 23.55L42.2722 22.86C42.3222 22.71 42.2122 22.56 42.0622 22.56H42.1022Z" stroke="url(#paint1_linear_2692_276757)" stroke-opacity="0.6" stroke-width="0.5" stroke-linecap="round" stroke-linejoin="round"/>
<path opacity="0.7" d="M37.5523 29.99H27.8123C27.3623 29.99 27.0123 29.61 27.0423 29.17L27.2823 25.57C27.3323 24.8 27.9723 24.2 28.7423 24.2H36.6123C37.3823 24.2 38.0223 24.8 38.0723 25.57L38.3123 29.17C38.3423 29.61 37.9923 29.99 37.5423 29.99H37.5523Z" fill="white"/>
<path d="M30.9623 24.2L27.1023 28.25L27.0423 29.17C27.0123 29.61 27.3623 29.99 27.8123 29.99H28.4323L33.1923 24.2H30.9723H30.9623Z" fill="white"/>
<path opacity="0.7" d="M35.3523 10.58H29.8623C29.1023 10.58 28.4623 10.03 28.3423 9.27999L27.8723 6.27999C27.8223 5.95999 28.0623 5.67999 28.3823 5.67999H37.0723C37.4123 5.67999 37.6523 5.98999 37.5823 6.31999L36.8623 9.39999C36.7023 10.1 36.0823 10.59 35.3623 10.59L35.3523 10.58Z" fill="white"/>
<path opacity="0.7" fill-rule="evenodd" clip-rule="evenodd" d="M33.0362 5.67999L28.4064 9.53814C28.3782 9.4553 28.3566 9.36906 28.3424 9.27999L28.0725 7.55755L30.4865 5.67999H33.0362Z" fill="white"/>
<path d="M37.5523 29.99H27.8123C27.3623 29.99 27.0123 29.61 27.0423 29.17L27.2823 25.57C27.3323 24.8 27.9723 24.2 28.7423 24.2H36.6123C37.3823 24.2 38.0223 24.8 38.0723 25.57L38.3123 29.17C38.3423 29.61 37.9923 29.99 37.5423 29.99H37.5523Z" stroke="url(#paint2_linear_2692_276757)" stroke-opacity="0.7" stroke-width="0.5" stroke-linecap="round" stroke-linejoin="round"/>
<path d="M35.3523 10.58H29.8623C29.1023 10.58 28.4623 10.03 28.3423 9.27999L27.8723 6.27999C27.8223 5.95999 28.0623 5.67999 28.3823 5.67999H37.0723C37.4123 5.67999 37.6523 5.98999 37.5823 6.31999L36.8623 9.39999C36.7023 10.1 36.0823 10.59 35.3623 10.59L35.3523 10.58Z" stroke="url(#paint3_linear_2692_276757)" stroke-opacity="0.7" stroke-width="0.5" stroke-linecap="round" stroke-linejoin="round"/>
<g opacity="0.7">
<path d="M27.9922 15.1188V13.0288C27.9922 12.4288 27.8222 11.8488 27.5022 11.3488L27.0822 10.6888C26.9822 10.5288 26.7322 10.5988 26.7322 10.7888V15.1188C26.7322 15.1888 26.7922 15.2588 26.8722 15.2588H27.8522C27.9222 15.2588 27.9922 15.1988 27.9922 15.1188Z" fill="white"/>
<path d="M26.7322 17.0288V22.6888C26.7322 22.9188 27.0122 23.0288 27.1722 22.8588C27.6922 22.2988 27.9922 21.5588 27.9922 20.7988V17.0288C27.9922 16.8888 27.8822 16.7788 27.7422 16.7788H26.9922C26.8522 16.7788 26.7422 16.8888 26.7422 17.0288H26.7322Z" fill="white"/>
</g>
<path d="M27.9922 15.1188V13.0288C27.9922 12.4288 27.8222 11.8488 27.5022 11.3488L27.0822 10.6888C26.9822 10.5288 26.7322 10.5988 26.7322 10.7888V15.1188C26.7322 15.1888 26.7922 15.2588 26.8722 15.2588H27.8522C27.9222 15.2588 27.9922 15.1988 27.9922 15.1188Z" stroke="url(#paint4_linear_2692_276757)" stroke-opacity="0.7" stroke-width="0.5" stroke-linecap="round" stroke-linejoin="round"/>
<path d="M26.7322 17.0288V22.6888C26.7322 22.9188 27.0122 23.0288 27.1722 22.8588C27.6922 22.2988 27.9922 21.5588 27.9922 20.7988V17.0288C27.9922 16.8888 27.8822 16.7788 27.7422 16.7788H26.9922C26.8522 16.7788 26.7422 16.8888 26.7422 17.0288H26.7322Z" stroke="url(#paint5_linear_2692_276757)" stroke-opacity="0.7" stroke-width="0.5" stroke-linecap="round" stroke-linejoin="round"/>
<g opacity="0.7">
<path d="M37.7422 15.1188V13.0288C37.7422 12.4288 37.9122 11.8488 38.2322 11.3488L38.6522 10.6888C38.7522 10.5288 39.0022 10.5988 39.0022 10.7888V15.1188C39.0022 15.1888 38.9422 15.2588 38.8622 15.2588H37.8822C37.8122 15.2588 37.7422 15.1988 37.7422 15.1188Z" fill="white"/>
<path d="M38.9922 17.0388V22.6988C38.9922 22.9288 38.7122 23.0388 38.5522 22.8688C38.0322 22.3088 37.7322 21.5688 37.7322 20.8088V17.0388C37.7322 16.8988 37.8422 16.7888 37.9822 16.7888H38.7322C38.8722 16.7888 38.9822 16.8988 38.9822 17.0388H38.9922Z" fill="white"/>
</g>
<path d="M37.7422 15.1188V13.0288C37.7422 12.4288 37.9122 11.8488 38.2322 11.3488L38.6522 10.6888C38.7522 10.5288 39.0022 10.5988 39.0022 10.7888V15.1188C39.0022 15.1888 38.9422 15.2588 38.8622 15.2588H37.8822C37.8122 15.2588 37.7422 15.1988 37.7422 15.1188V15.1188Z" stroke="url(#paint6_linear_2692_276757)" stroke-opacity="0.7" stroke-width="0.5" stroke-linecap="round" stroke-linejoin="round"/>
<path d="M38.9922 17.0388V22.6988C38.9922 22.9288 38.7122 23.0388 38.5522 22.8688C38.0322 22.3088 37.7322 21.5688 37.7322 20.8088V17.0388C37.7322 16.8988 37.8422 16.7888 37.9822 16.7888H38.7322C38.8722 16.7888 38.9822 16.8988 38.9822 17.0388H38.9922Z" stroke="url(#paint7_linear_2692_276757)" stroke-opacity="0.7" stroke-width="0.5" stroke-linecap="round" stroke-linejoin="round"/>
<path d="M31.6741 479.225L17.5643 488.887C17.1804 489.14 16.9745 489.58 17.0025 490.029C17.2179 493.316 18.9125 506.639 32.3763 515H32.4137C45.8774 506.648 47.5721 493.306 47.7874 490.029C47.8249 489.58 47.6095 489.14 47.2257 488.887L33.1253 479.225C32.6852 478.925 32.1141 478.925 31.6741 479.225Z" fill="url(#paint8_linear_2692_276757)"/>
<path d="M31.6741 479.225L17.5643 488.887C17.1804 489.14 16.9745 489.58 17.0025 490.029C17.2179 493.316 18.9125 506.639 32.3763 515H32.4137C45.8774 506.648 47.5721 493.306 47.7874 490.029C47.8249 489.58 47.6095 489.14 47.2257 488.887L33.1253 479.225C32.6852 478.925 32.1141 478.925 31.6741 479.225Z" stroke="url(#paint9_linear_2692_276757)" stroke-width="0.5" stroke-linecap="round" stroke-linejoin="round"/>
<g style="mix-blend-mode:overlay">
<path d="M28.6312 502.866C28.8746 503.119 29.221 503.278 29.5768 503.278C29.9326 503.278 30.2884 503.147 30.5318 502.856L38.6213 493.812C39.0894 493.288 39.0426 492.482 38.5183 492.014C37.994 491.546 37.1888 491.593 36.7206 492.117L29.5675 500.113L27.3017 497.585C26.8335 497.061 26.0283 497.005 25.504 497.482C24.9797 497.95 24.9235 498.756 25.401 499.28L28.6125 502.866H28.6312Z" fill="#353535"/>
</g>
<g style="mix-blend-mode:overlay">
<path d="M39.4077 493.709L31.3182 502.753C31.0748 503.044 30.719 503.175 30.3632 503.175C30.0074 503.175 29.6517 503.016 29.4176 502.763L26.2061 499.177C26.0938 499.046 26.0095 498.905 25.9627 498.756C25.8223 499.177 25.8972 499.654 26.2061 500.001L29.4176 503.587C29.661 503.849 30.0074 504.008 30.3632 504.008C30.719 504.008 31.0748 503.877 31.3182 503.587L39.4077 494.542C39.726 494.187 39.8009 493.709 39.6511 493.288C39.6043 493.438 39.5107 493.587 39.4077 493.718V493.709Z" fill="#666666"/>
</g>
<path d="M31.7671 483.765L21.1549 491.029C20.8279 491.253 20.6385 491.631 20.673 492.019C20.8537 494.635 22.2136 504.671 32.3954 510.979H32.4298C42.5945 504.671 43.9543 494.635 44.1351 492.019C44.1695 491.623 43.9716 491.253 43.6531 491.029L33.0409 483.765C32.6622 483.506 32.163 483.506 31.7757 483.765H31.7671Z" fill="#C8D9FF"/>
<g style="mix-blend-mode:overlay">
<path fill-rule="evenodd" clip-rule="evenodd" d="M33.9958 484.427L33.0491 483.773C32.6618 483.506 32.1454 483.506 31.7581 483.773L21.1459 491.037C20.8188 491.261 20.6295 491.64 20.6553 492.027C20.6725 492.354 20.7155 492.802 20.8102 493.396L34.0131 484.419L33.9958 484.427Z" fill="#B3B3B3"/>
</g>
<g style="mix-blend-mode:overlay">
<path d="M43.6529 491.029L42.9557 490.547C42.861 492.483 41.9487 501.641 33.5054 508.199C32.1714 509.232 30.2951 509.258 28.961 508.234C28.3241 507.752 27.7303 507.252 27.1794 506.736C28.591 508.234 30.2951 509.688 32.3693 510.971H32.4038C42.5856 504.645 43.9455 494.6 44.1262 491.993C44.1607 491.605 43.9713 491.235 43.6443 491.011L43.6529 491.029Z" fill="#353535"/>
</g>
<path d="M35.9409 488.025L36.1733 488.197" stroke="white" stroke-linecap="round" stroke-linejoin="round"/>
<path d="M32.4041 485.434L34.4955 486.975" stroke="white" stroke-linecap="round" stroke-linejoin="round"/>
<path d="M29.3992 503.596C29.6427 503.849 29.9891 504.008 30.3449 504.008C30.7007 504.008 31.0565 503.877 31.2999 503.587L39.3894 494.542C39.8575 494.018 39.8107 493.213 39.2864 492.745C38.762 492.276 37.9568 492.323 37.4887 492.848L30.3355 500.843L28.0697 498.315C27.6016 497.791 26.7964 497.735 26.2721 498.212C25.7478 498.681 25.6916 499.486 26.1691 500.01L29.3805 503.596H29.3992Z" fill="#589BFF"/>
<g style="mix-blend-mode:overlay" opacity="0.3">
<path d="M26.2904 498.643C26.8147 498.175 27.6199 498.222 28.0881 498.746L30.3539 501.274L37.507 493.278C37.9752 492.754 38.7804 492.698 39.3047 493.175C39.5294 493.372 39.6605 493.634 39.7073 493.915C39.7822 493.494 39.6418 493.044 39.3047 492.745C38.7804 492.276 37.9752 492.323 37.507 492.848L30.3539 500.843L28.0881 498.315C27.6199 497.791 26.8147 497.735 26.2904 498.212C25.9533 498.521 25.8129 498.961 25.8878 499.383C25.9346 499.111 26.0657 498.849 26.2904 498.643Z" fill="white"/>
</g>
<path d="M29.3991 503.596C29.6426 503.849 29.989 504.008 30.3448 504.008C30.7005 504.008 31.0563 503.877 31.2998 503.587L39.3892 494.542C39.8574 494.018 39.8106 493.213 39.2862 492.745C38.7619 492.277 37.9567 492.323 37.4886 492.848L30.3354 500.843L28.0696 498.316C27.6015 497.791 26.7963 497.735 26.272 498.213C25.7476 498.681 25.6915 499.486 26.169 500.01L29.3804 503.596H29.3991Z" stroke="url(#paint10_linear_2692_276757)" stroke-width="0.5" stroke-linecap="round" stroke-linejoin="round"/>
<path d="M15.3158 63.7855V57.9479H14.3093V63.7855C14.3093 64.0614 14.533 64.2851 14.8088 64.2851C15.0847 64.2851 15.3084 64.0614 15.3084 63.7855H15.3158Z" fill="#6CAAF4"/>
<g style="mix-blend-mode:overlay">
<path d="M14.8087 64.2925C15.0846 64.2925 15.3082 64.0688 15.3082 63.793V57.9553H14.8087V64.3V64.2925Z" fill="#282828"/>
</g>
<path d="M19.6176 50.9173C19.6176 48.2632 17.463 46.1085 14.8088 46.1085C12.1546 46.1085 10 48.2632 10 50.9173V54.9582C10 57.6124 12.1546 59.767 14.8088 59.767C17.463 59.767 19.6176 57.6124 19.6176 54.9582V50.9173Z" fill="#EBF1FF"/>
<g style="mix-blend-mode:soft-light">
<path d="M17.0455 47.3014C17.4407 47.8233 17.6718 48.4346 17.6718 49.0907V54.3319C17.6718 56.1213 16.0316 57.7093 13.8098 57.9031C13.1687 57.9553 12.5573 57.9031 11.9907 57.7466C11.7521 57.6795 11.5583 57.918 11.7447 58.0672C12.5648 58.7307 13.7204 59.1333 14.9953 59.0886C17.3438 59.0066 19.1331 57.3589 19.1331 55.4801V50.2761C19.1331 49.0236 18.2981 47.9277 17.053 47.3163V47.3014H17.0455Z" fill="black"/>
</g>
<path d="M13.0493 48.9939C13.6607 48.5018 13.9365 47.8233 13.6681 47.4878C13.3923 47.1523 12.6766 47.2791 12.0652 47.7712C11.4539 48.2632 11.178 48.9417 11.4464 49.2772C11.7223 49.6127 12.438 49.4859 13.0493 48.9939Z" fill="white"/>
<path d="M46.1098 442.317V435.608H44.953V442.317C44.953 442.634 45.2101 442.891 45.5271 442.891C45.8442 442.891 46.1013 442.634 46.1013 442.317H46.1098Z" fill="#6CAAF4"/>
<g style="mix-blend-mode:overlay">
<path d="M45.5184 442.891C45.8355 442.891 46.0926 442.634 46.0926 442.317V435.608H45.5184V442.9V442.891Z" fill="#282828"/>
</g>
<path d="M51.0541 427.527C51.0541 424.476 48.5777 422 45.5271 422C42.4765 422 40 424.476 40 427.527V432.172C40 435.222 42.4765 437.699 45.5271 437.699C48.5777 437.699 51.0541 435.222 51.0541 432.172V427.527Z" fill="#A5BDF3"/>
<g style="mix-blend-mode:soft-light">
<path d="M48.0979 423.371C48.5521 423.971 48.8177 424.673 48.8177 425.428V431.452C48.8177 433.508 46.9325 435.333 44.3789 435.556C43.642 435.616 42.9393 435.556 42.2881 435.376C42.0139 435.299 41.7911 435.573 42.0053 435.745C42.9479 436.507 44.2761 436.97 45.7414 436.919C48.4407 436.824 50.4973 434.931 50.4973 432.771V426.79C50.4973 425.35 49.5375 424.091 48.1065 423.388V423.371H48.0979Z" fill="black"/>
</g>
<path d="M43.5049 425.316C44.2076 424.751 44.5246 423.971 44.2161 423.585C43.8991 423.2 43.0764 423.345 42.3738 423.911C41.6711 424.477 41.354 425.256 41.6625 425.642C41.9796 426.028 42.8022 425.882 43.5049 425.316Z" fill="white"/>
<path d="M20.0446 184.213V178.672H19.0906V184.213C19.0906 184.475 19.3062 184.69 19.5676 184.69C19.829 184.69 20.0446 184.475 20.0446 184.213Z" fill="#6CAAF4"/>
<g style="mix-blend-mode:overlay">
<path d="M19.5675 184.69C19.8289 184.69 20.0445 184.475 20.0445 184.213V178.672H19.5675V184.69Z" fill="#282828"/>
</g>
<path d="M24.122 172.007C24.122 169.491 22.0833 167.446 19.561 167.446C17.0387 167.446 15 169.485 15 172.007V175.843C15 178.359 17.0387 180.404 19.561 180.404C22.0833 180.404 24.122 178.365 24.122 175.843V172.007Z" fill="#A5BDF3"/>
<g style="mix-blend-mode:overlay">
<path d="M21.6848 168.577C22.0572 169.073 22.2859 169.655 22.2859 170.276V175.255C22.2859 176.954 20.7373 178.463 18.6267 178.64C18.019 178.692 17.4309 178.64 16.9016 178.489C16.6729 178.431 16.4965 178.653 16.6663 178.79C17.4439 179.417 18.5417 179.796 19.744 179.757C21.9723 179.679 23.6712 178.11 23.6712 176.326V171.386C23.6712 170.197 22.8806 169.158 21.6913 168.583L21.6848 168.577Z" fill="black"/>
</g>
<path d="M17.8948 170.184C18.4764 169.714 18.7378 169.073 18.4764 168.753C18.215 168.433 17.5354 168.551 16.9539 169.021C16.3723 169.492 16.1109 170.132 16.3723 170.452C16.6337 170.772 17.3133 170.655 17.8948 170.184Z" fill="white"/>
<path d="M24.9648 341.826V335.274H23.8368V341.826C23.8368 342.135 24.0918 342.39 24.4008 342.39C24.7099 342.39 24.9648 342.135 24.9648 341.826Z" fill="#6CAAF4"/>
<g style="mix-blend-mode:overlay">
<path d="M24.4008 342.39C24.7098 342.39 24.9648 342.135 24.9648 341.826V335.274H24.4008V342.39Z" fill="#282828"/>
</g>
<path d="M29.7861 327.393C29.7861 324.418 27.3754 322 24.393 322C21.4106 322 19 324.411 19 327.393V331.928C19 334.903 21.4106 337.321 24.393 337.321C27.3754 337.321 29.7861 334.911 29.7861 331.928V327.393Z" fill="#A5BDF3"/>
<g style="mix-blend-mode:overlay">
<path d="M26.9042 323.337C27.3446 323.924 27.615 324.612 27.615 325.346V331.233C27.615 333.242 25.7839 335.027 23.2882 335.235C22.5697 335.297 21.8743 335.235 21.2485 335.058C20.9781 334.988 20.7694 335.251 20.9703 335.413C21.8898 336.155 23.1878 336.603 24.6095 336.557C27.2442 336.464 29.253 334.61 29.253 332.5V326.659C29.253 325.253 28.3181 324.024 26.9119 323.344L26.9042 323.337Z" fill="black"/>
</g>
<path d="M22.4229 325.237C23.1105 324.681 23.4196 323.924 23.1105 323.545C22.8015 323.167 21.9979 323.306 21.3103 323.862C20.6226 324.418 20.3136 325.176 20.6226 325.554C20.9317 325.933 21.7352 325.794 22.4229 325.237Z" fill="white"/>
<path d="M16.5021 346.964V342.019H15.6506V346.964C15.6506 347.198 15.8431 347.39 16.0764 347.39C16.3096 347.39 16.5021 347.198 16.5021 346.964Z" fill="#6CAAF4"/>
<g style="mix-blend-mode:overlay">
<path d="M16.0763 347.39C16.3096 347.39 16.502 347.198 16.502 346.964V342.019H16.0763V347.39Z" fill="#282828"/>
</g>
<path d="M20.1411 336.071C20.1411 333.825 18.3216 332 16.0706 332C13.8195 332 12 333.82 12 336.071V339.494C12 341.739 13.8195 343.564 16.0706 343.564C18.3216 343.564 20.1411 341.745 20.1411 339.494V336.071Z" fill="#EBF1FF"/>
<g style="mix-blend-mode:overlay">
<path d="M17.9659 333.009C18.2983 333.452 18.5024 333.971 18.5024 334.525V338.969C18.5024 340.485 17.1203 341.832 15.2366 341.99C14.6942 342.036 14.1694 341.99 13.697 341.856C13.4929 341.803 13.3354 342.001 13.4871 342.124C14.181 342.684 15.1608 343.022 16.2338 342.987C18.2225 342.917 19.7387 341.517 19.7387 339.925V335.517C19.7387 334.455 19.0331 333.528 17.9717 333.015L17.9659 333.009Z" fill="black"/>
</g>
<path d="M14.5835 334.444C15.1025 334.024 15.3358 333.452 15.1025 333.166C14.8692 332.881 14.2627 332.986 13.7437 333.405C13.2247 333.825 12.9914 334.397 13.2247 334.683C13.458 334.968 14.0645 334.863 14.5835 334.444Z" fill="white"/>
<path d="M49.0799 267.505V260.829H47.9287V267.505C47.9287 267.821 48.1845 268.077 48.5 268.077C48.8155 268.077 49.0713 267.821 49.0713 267.505H49.0799Z" fill="#6CAAF4"/>
<g style="mix-blend-mode:overlay">
<path d="M48.4915 268.085C48.807 268.085 49.0628 267.83 49.0628 267.514V260.837H48.4915V268.094V268.085Z" fill="#282828"/>
</g>
<path d="M54 252.796C54 249.76 51.5357 247.296 48.5 247.296C45.4643 247.296 43 249.76 43 252.796V257.418C43 260.454 45.4643 262.918 48.5 262.918C51.5357 262.918 54 260.454 54 257.418V252.796Z" fill="#A5BDF3"/>
<g style="mix-blend-mode:soft-light">
<path d="M51.0582 248.652C51.5101 249.249 51.7744 249.948 51.7744 250.698V256.693C51.7744 258.74 49.8985 260.556 47.3574 260.778C46.624 260.837 45.9248 260.778 45.2768 260.599C45.0039 260.522 44.7822 260.795 44.9954 260.965C45.9333 261.724 47.2551 262.185 48.7132 262.133C51.3992 262.04 53.4458 260.155 53.4458 258.006V252.054C53.4458 250.622 52.4907 249.368 51.0667 248.669V248.652H51.0582Z" fill="black"/>
</g>
<path d="M46.4876 250.588C47.1868 250.025 47.5023 249.249 47.1953 248.865C46.8798 248.481 46.0612 248.626 45.362 249.189C44.6628 249.752 44.3473 250.528 44.6543 250.912C44.9698 251.295 45.7884 251.15 46.4876 250.588Z" fill="white"/>
<path d="M43.9499 104.134V99.7952H43.2036V104.134C43.2036 104.342 43.3689 104.507 43.5767 104.507C43.7846 104.507 43.9499 104.342 43.9499 104.134Z" fill="#6CAAF4"/>
<g style="mix-blend-mode:overlay">
<path d="M43.5659 104.507C43.7738 104.507 43.939 104.342 43.939 104.134V99.7952H43.5659V104.507Z" fill="#282828"/>
</g>
<path d="M47.1427 94.5714C47.1427 92.5991 45.5436 91 43.5714 91C41.5991 91 40 92.5991 40 94.5714V97.5724C40 99.5446 41.5991 101.144 43.5714 101.144C45.5436 101.144 47.1427 99.5446 47.1427 97.5724V94.5714Z" fill="#A5BDF3"/>
<g style="mix-blend-mode:soft-light">
<path d="M45.2343 91.8795C45.5275 92.2686 45.6981 92.7217 45.6981 93.2121V97.1086C45.6981 98.4412 44.4827 99.6193 42.8303 99.7578C42.3559 99.7952 41.8975 99.7579 41.4764 99.6459C41.3005 99.5979 41.1566 99.7738 41.2898 99.8858C41.9028 100.376 42.7557 100.675 43.7045 100.643C45.4529 100.584 46.7801 99.3527 46.7801 97.9562V94.0863C46.7801 93.1535 46.1565 92.3379 45.2343 91.8902V91.8795Z" fill="black"/>
</g>
<path d="M42.2654 93.1375C42.7238 92.7697 42.9264 92.2687 42.7238 92.0182C42.5213 91.7676 41.9882 91.8636 41.5298 92.2314C41.0714 92.5992 40.8688 93.1002 41.0714 93.3508C41.2739 93.6013 41.807 93.5053 42.2654 93.1375Z" fill="white"/>
<path d="M48.807 109.607V105.268H48.0608V109.607C48.0608 109.815 48.226 109.98 48.4339 109.98C48.6418 109.98 48.807 109.815 48.807 109.607Z" fill="#6CAAF4"/>
<g style="mix-blend-mode:overlay">
<path d="M48.4232 109.98C48.6311 109.98 48.7963 109.815 48.7963 109.607V105.268H48.4232V109.98Z" fill="#282828"/>
</g>
<path d="M52 100.044C52 98.072 50.4009 96.4729 48.4287 96.4729C46.4564 96.4729 44.8573 98.072 44.8573 100.044V103.045C44.8573 105.018 46.4564 106.617 48.4287 106.617C50.4009 106.617 52 105.018 52 103.045V100.044Z" fill="#EBF1FF"/>
<g style="mix-blend-mode:soft-light">
<path d="M50.0916 97.3524C50.3848 97.7415 50.5554 98.1946 50.5554 98.685V102.582C50.5554 103.914 49.34 105.092 47.6876 105.231C47.2132 105.268 46.7548 105.231 46.3337 105.119C46.1578 105.071 46.0139 105.247 46.1471 105.359C46.7601 105.849 47.613 106.148 48.5618 106.116C50.3102 106.057 51.6374 104.826 51.6374 103.429V99.5592C51.6374 98.6264 51.0138 97.8108 50.0916 97.3631V97.3524Z" fill="black"/>
</g>
<path d="M47.1226 98.6103C47.581 98.2425 47.7835 97.7415 47.581 97.4909C47.3784 97.2404 46.8454 97.3363 46.387 97.7041C45.9286 98.0719 45.726 98.573 45.9286 98.8235C46.1311 99.0741 46.6642 98.9781 47.1226 98.6103Z" fill="white"/>
<defs>
<linearGradient id="paint0_linear_2692_276757" x1="32" y1="0" x2="32" y2="731.286" gradientUnits="userSpaceOnUse">
<stop stop-color="#F5F8FC" stop-opacity="0.3"/>
<stop offset="0.140625" stop-color="#F5F8FC"/>
<stop offset="0.885417" stop-color="#F5F8FC"/>
<stop offset="1" stop-color="#F5F8FC" stop-opacity="0"/>
</linearGradient>
<linearGradient id="paint1_linear_2692_276757" x1="31.7322" y1="38.1" x2="31.7322" y2="-3.89999" gradientUnits="userSpaceOnUse">
<stop stop-color="#1B217C"/>
<stop offset="1" stop-color="#1B217C" stop-opacity="0"/>
</linearGradient>
<linearGradient id="paint2_linear_2692_276757" x1="33.7322" y1="33.5999" x2="33.2322" y2="21.0999" gradientUnits="userSpaceOnUse">
<stop stop-color="#1B217C"/>
<stop offset="1" stop-color="#1B217C" stop-opacity="0"/>
</linearGradient>
<linearGradient id="paint3_linear_2692_276757" x1="32.7322" y1="14.1" x2="31.7322" y2="-0.399994" gradientUnits="userSpaceOnUse">
<stop stop-color="#1B217C"/>
<stop offset="1" stop-color="#1B217C" stop-opacity="0"/>
</linearGradient>
<linearGradient id="paint4_linear_2692_276757" x1="31.4622" y1="12.6588" x2="24.4622" y2="12.6588" gradientUnits="userSpaceOnUse">
<stop stop-color="#1B217C"/>
<stop offset="1" stop-color="#1B217C" stop-opacity="0"/>
</linearGradient>
<linearGradient id="paint5_linear_2692_276757" x1="31.4622" y1="19.5022" x2="24.4622" y2="19.5022" gradientUnits="userSpaceOnUse">
<stop stop-color="#1B217C"/>
<stop offset="1" stop-color="#1B217C" stop-opacity="0"/>
</linearGradient>
<linearGradient id="paint6_linear_2692_276757" x1="35.6521" y1="13.1588" x2="41.1521" y2="13.1588" gradientUnits="userSpaceOnUse">
<stop stop-color="#1B217C"/>
<stop offset="1" stop-color="#1B217C" stop-opacity="0"/>
</linearGradient>
<linearGradient id="paint7_linear_2692_276757" x1="35.6421" y1="20.1735" x2="41.1421" y2="20.1735" gradientUnits="userSpaceOnUse">
<stop stop-color="#1B217C"/>
<stop offset="1" stop-color="#1B217C" stop-opacity="0"/>
</linearGradient>
<linearGradient id="paint8_linear_2692_276757" x1="32.2269" y1="480.906" x2="32.3958" y2="515" gradientUnits="userSpaceOnUse">
<stop stop-color="#6CA7FF"/>
<stop offset="1" stop-color="#1162DD"/>
</linearGradient>
<linearGradient id="paint9_linear_2692_276757" x1="32.2269" y1="471.952" x2="32.2269" y2="518.775" gradientUnits="userSpaceOnUse">
<stop stop-color="#1B217C"/>
<stop offset="1" stop-color="#1B217C" stop-opacity="0"/>
</linearGradient>
<linearGradient id="paint10_linear_2692_276757" x1="32.7011" y1="490.154" x2="32.7011" y2="505.223" gradientUnits="userSpaceOnUse">
<stop stop-color="#1B217C"/>
<stop offset="1" stop-color="#1B217C" stop-opacity="0"/>
</linearGradient>
</defs>
</svg>
