<svg width="56" height="56" viewBox="0 0 56 56" fill="none" xmlns="http://www.w3.org/2000/svg">
<path d="M15 52L49 52" stroke="url(#paint0_linear_4368_2982)" stroke-width="0.5" stroke-linecap="round" stroke-linejoin="round"/>
<path fill-rule="evenodd" clip-rule="evenodd" d="M25.3672 15.9316C25.1437 15.9316 25.1214 16.2444 25.3275 16.3309C27.1454 17.0934 28.4196 18.8663 28.4196 20.9317C28.4196 22.9971 27.1454 24.77 25.3275 25.5325C25.1214 25.6189 25.1438 25.9316 25.3672 25.9316C28.1769 25.9316 30.4546 23.6931 30.4546 20.9316C30.4546 18.1702 28.1769 15.9316 25.3672 15.9316Z" fill="url(#paint1_linear_4368_2982)"/>
<path d="M25.3275 16.3309L25.4242 16.1003L25.3275 16.3309ZM28.1696 20.9317C28.1696 18.9725 26.961 17.2871 25.2308 16.5614L25.4242 16.1003C27.3298 16.8996 28.6696 18.7601 28.6696 20.9317H28.1696ZM25.2308 25.3019C26.961 24.5762 28.1696 22.8909 28.1696 20.9317H28.6696C28.6696 23.1032 27.3298 24.9637 25.4242 25.763L25.2308 25.3019ZM25.3672 25.6816C28.0429 25.6816 30.2046 23.5509 30.2046 20.9316H30.7046C30.7046 23.8352 28.3108 26.1816 25.3672 26.1816V25.6816ZM30.2046 20.9316C30.2046 18.3124 28.0429 16.1816 25.3672 16.1816V15.6816C28.3108 15.6816 30.7046 18.0281 30.7046 20.9316H30.2046ZM25.4242 25.763C25.4241 25.763 25.4245 25.7629 25.4254 25.7623C25.4262 25.7618 25.4272 25.7611 25.4282 25.7602C25.4303 25.7583 25.432 25.7561 25.4331 25.7541C25.4349 25.7509 25.4358 25.7476 25.4353 25.7428C25.4349 25.7381 25.4321 25.7225 25.4156 25.7058C25.4072 25.6972 25.3971 25.6905 25.3865 25.6862C25.3761 25.682 25.3688 25.6816 25.3672 25.6816V26.1816C25.2488 26.1816 25.1401 26.1383 25.0599 26.0571C24.9828 25.979 24.9454 25.8799 24.9372 25.7862C24.9211 25.6015 25.0164 25.3918 25.2308 25.3019L25.4242 25.763ZM25.2308 16.5614C25.0164 16.4715 24.9211 16.2619 24.9372 16.0771C24.9454 15.9835 24.9828 15.8842 25.0599 15.8062C25.1401 15.7249 25.2488 15.6816 25.3672 15.6816V16.1816C25.3688 16.1816 25.376 16.1813 25.3865 16.1771C25.397 16.1728 25.4072 16.1661 25.4156 16.1575C25.4321 16.1408 25.4349 16.1252 25.4353 16.1205C25.4357 16.1157 25.4349 16.1124 25.4331 16.1092C25.4319 16.1072 25.4303 16.1051 25.4282 16.1032C25.4272 16.1022 25.4262 16.1015 25.4254 16.101C25.4245 16.1005 25.4241 16.1003 25.4242 16.1003L25.2308 16.5614Z" fill="url(#paint2_linear_4368_2982)" fill-opacity="0.4"/>
<path d="M23.8409 51.7352C23.2614 51.5283 22.7116 51.2002 22.2262 50.7507C8.27694 37.8348 -4.15427 6.12932 23.841 5.02937C23.345 5.00988 22.8363 5 22.3147 5C-7.64672 5 4.97736 37.6059 19.1737 50.7507C20.4873 51.967 22.2727 52.2952 23.8409 51.7352Z" fill="#61B9FF"/>
<path d="M23.841 25.7029C24.3228 25.8516 24.8354 25.9318 25.3672 25.9318C28.1769 25.9318 30.4546 23.6932 30.4546 20.9318C30.4546 18.1704 28.1769 15.9318 25.3672 15.9318C24.8354 15.9318 24.3228 16.012 23.841 16.1607C25.905 16.7979 27.4021 18.693 27.4021 20.9318C27.4021 23.1706 25.905 25.0658 23.841 25.7029Z" fill="#61B9FF"/>
<path d="M23.8409 51.7352C23.2614 51.5283 22.7116 51.2002 22.2262 50.7507C8.27694 37.8348 -4.15427 6.12932 23.841 5.02937C23.345 5.00988 22.8363 5 22.3147 5C-7.64672 5 4.97736 37.6059 19.1737 50.7507C20.4873 51.967 22.2727 52.2952 23.8409 51.7352Z" stroke="url(#paint3_linear_4368_2982)" stroke-width="0.5" stroke-linecap="round" stroke-linejoin="round"/>
<path d="M23.841 25.7029C24.3228 25.8516 24.8354 25.9318 25.3672 25.9318C28.1769 25.9318 30.4546 23.6932 30.4546 20.9318C30.4546 18.1704 28.1769 15.9318 25.3672 15.9318C24.8354 15.9318 24.3228 16.012 23.841 16.1607C25.905 16.7979 27.4021 18.693 27.4021 20.9318C27.4021 23.1706 25.905 25.0658 23.841 25.7029Z" stroke="url(#paint4_linear_4368_2982)" stroke-width="0.5" stroke-linecap="round" stroke-linejoin="round"/>
<path fill-rule="evenodd" clip-rule="evenodd" d="M25.3669 5C55.3284 5 42.7043 37.6059 28.5079 50.7507C26.709 52.4164 24.0249 52.4164 22.2259 50.7507C8.02958 37.6059 -4.59449 5 25.3669 5ZM25.3669 25.9316C22.5572 25.9316 20.2795 23.693 20.2795 20.9316C20.2795 18.1702 22.5572 15.9316 25.3669 15.9316C28.1766 15.9316 30.4544 18.1702 30.4544 20.9316C30.4544 23.693 28.1766 25.9316 25.3669 25.9316Z" fill="url(#paint5_linear_4368_2982)"/>
<path fill-rule="evenodd" clip-rule="evenodd" d="M27.5943 51.4164V33.5C27.5943 28.5294 31.6237 24.5 36.5943 24.5H43.2651C41.6066 33.9272 35.2337 44.5231 28.5078 50.7507C28.2231 51.0143 27.9163 51.2362 27.5943 51.4164Z" fill="#BADFFF"/>
<path fill-rule="evenodd" clip-rule="evenodd" d="M25.3672 52C24.2464 52 23.1257 51.5836 22.2262 50.7507C8.02982 37.6059 -4.59425 5 25.3672 5L25.3672 15.9316C22.5575 15.9316 20.2798 18.1702 20.2798 20.9316C20.2798 23.693 22.5575 25.9316 25.3672 25.9316L25.3672 52Z" fill="url(#paint6_linear_4368_2982)"/>
<path d="M24.9553 5C55.5902 5 42.6824 37.6059 28.1669 50.7507C26.7358 52.0467 24.7569 52.3343 23.0826 51.6138C23.5603 51.4082 24.0133 51.1205 24.4216 50.7507C38.2633 40.8386 49.874 8.1164 23.0826 5.04265C23.6879 5.01438 24.312 5 24.9553 5Z" fill="url(#paint7_linear_4368_2982)"/>
<path d="M26.3843 51.8842C25.619 51.7078 24.8864 51.33 24.2608 50.7507C10.2278 37.7572 -2.26893 5.74784 26.3843 5.01287C26.0507 5.00432 25.7116 5 25.3668 5C-4.59465 5 8.02943 37.6059 22.2258 50.7507C23.3992 51.8372 24.949 52.215 26.3843 51.8842Z" fill="white"/>
<path d="M12.6643 15.6733C13.2641 13.4718 14.4007 11.5326 16.1895 10M12.1621 18.9443C12.1391 19.4102 12.134 19.8834 12.146 20.3628" stroke="white" stroke-width="2" stroke-linecap="round" stroke-linejoin="round"/>
<path fill-rule="evenodd" clip-rule="evenodd" d="M28.5079 50.7507C42.7043 37.6059 55.3284 5 25.3669 5C-4.5945 5 8.02958 37.6059 22.2259 50.7507C24.0249 52.4164 26.709 52.4164 28.5079 50.7507Z" stroke="url(#paint8_linear_4368_2982)" stroke-width="0.5" stroke-linecap="round" stroke-linejoin="round"/>
<ellipse cx="5.08741" cy="5" rx="5.08741" ry="5" transform="matrix(-1 0 0 1 30.4546 15.9316)" stroke="url(#paint9_linear_4368_2982)" stroke-width="0.5" stroke-linecap="round" stroke-linejoin="round"/>
<path d="M43.21 26.1252V16.5835C43.21 16.0312 42.7622 15.5835 42.21 15.5835H38.46C37.9077 15.5835 37.46 16.0312 37.46 16.5835V26.1252" stroke="url(#paint10_linear_4368_2982)" stroke-width="0.5" stroke-linecap="round" stroke-linejoin="round"/>
<path d="M49.6042 50.0832C49.6042 51.1417 48.746 51.9998 47.6875 51.9998H46.35C46.2948 51.9998 46.25 51.9551 46.25 51.8998V50.0832C46.25 49.0246 46.629 48.1665 47.6875 48.1665C48.746 48.1665 49.6042 49.0246 49.6042 50.0832Z" fill="#FF5C00" stroke="url(#paint11_linear_4368_2982)" stroke-opacity="0.4" stroke-width="0.5" stroke-linejoin="round"/>
<path d="M37.1457 50.0832C37.1457 51.1417 36.2875 51.9998 35.229 51.9998H33.8915C33.8363 51.9998 33.7915 51.9551 33.7915 51.8998V50.0832C33.7915 49.0246 34.1705 48.1665 35.229 48.1665C36.2875 48.1665 37.1457 49.0246 37.1457 50.0832Z" fill="#FF5C00" stroke="url(#paint12_linear_4368_2982)" stroke-opacity="0.4" stroke-width="0.5" stroke-linejoin="round"/>
<ellipse cx="46.2502" cy="50.0832" rx="1.91667" ry="1.91667" fill="#FF8400" stroke="url(#paint13_linear_4368_2982)" stroke-opacity="0.4" stroke-width="0.5" stroke-linejoin="round"/>
<ellipse cx="33.7917" cy="50.0832" rx="1.91667" ry="1.91667" fill="#FF8400" stroke="url(#paint14_linear_4368_2982)" stroke-opacity="0.4" stroke-width="0.5" stroke-linejoin="round"/>
<path d="M32.8335 32.125C32.8335 28.8113 35.5198 26.125 38.8335 26.125H43.0002C47.9707 26.125 52.0002 30.1544 52.0002 35.125V47.125C52.0002 48.2296 51.1047 49.125 50.0002 49.125H34.8335C33.7289 49.125 32.8335 48.2296 32.8335 47.125V32.125Z" fill="url(#paint15_linear_4368_2982)" stroke="url(#paint16_linear_4368_2982)" stroke-opacity="0.4" stroke-width="0.5" stroke-linejoin="round"/>
<path d="M38.5835 25.875C38.4454 25.875 38.3335 25.9869 38.3335 26.125C38.3335 26.2631 38.4454 26.375 38.5835 26.375V25.875ZM49.8335 48.6458V48.8958H50.3335V48.6458H49.8335ZM38.5835 26.375H41.0835V25.875H38.5835V26.375ZM49.8335 35.125V48.6458H50.3335V35.125H49.8335ZM41.0835 26.375C45.916 26.375 49.8335 30.2925 49.8335 35.125H50.3335C50.3335 30.0164 46.1921 25.875 41.0835 25.875V26.375Z" fill="url(#paint17_linear_4368_2982)"/>
<path d="M29 35.125C29 30.1544 33.0294 26.125 38 26.125H39.1667C44.1372 26.125 48.1667 30.1544 48.1667 35.125V47.125C48.1667 48.2296 47.2712 49.125 46.1667 49.125H31C29.8954 49.125 29 48.2296 29 47.125V35.125Z" fill="url(#paint18_linear_4368_2982)"/>
<path fill-rule="evenodd" clip-rule="evenodd" d="M29.1899 47.9767C29.5099 48.6553 30.2001 49.1248 31 49.1248H46.1666C47.2712 49.1248 48.1666 48.2294 48.1666 47.1248V35.1248C48.1666 32.3955 46.9517 29.9498 45.0331 28.2993C46.3888 29.8748 47.2083 31.925 47.2083 34.1666V46.1666C47.2083 47.2712 46.3129 48.1666 45.2083 48.1666H30.0416C29.737 48.1666 29.4483 48.0985 29.1899 47.9767Z" fill="#FFA600"/>
<path fill-rule="evenodd" clip-rule="evenodd" d="M38 26.125C33.0294 26.125 29 30.1544 29 35.125V47.125C29 47.925 29.4697 48.6152 30.1483 48.9351C30.0264 48.6767 29.9583 48.3879 29.9583 48.0833V36.0833C29.9583 31.1127 33.9878 27.0833 38.9583 27.0833H40.125C42.3663 27.0833 44.4163 27.9026 45.9917 29.258C44.3412 27.3397 41.8958 26.125 39.1667 26.125H38Z" fill="white"/>
<path d="M29 35.125C29 30.1544 33.0294 26.125 38 26.125H39.1667C44.1372 26.125 48.1667 30.1544 48.1667 35.125V47.125C48.1667 48.2296 47.2712 49.125 46.1667 49.125H31C29.8954 49.125 29 48.2296 29 47.125V35.125Z" stroke="url(#paint19_linear_4368_2982)" stroke-width="0.5" stroke-linecap="round" stroke-linejoin="round"/>
<g opacity="0.2">
<path d="M29.5 32H48V32.5H29.353L29.5 32Z" fill="#FFA600"/>
<path d="M51.3 32H48V32.5H51.5L51.3 32Z" fill="#BD5500"/>
<path d="M29 38H48V38.5H29V38Z" fill="#FFA600"/>
<path d="M52 38H48V38.5H52V38Z" fill="#BD5500"/>
<path d="M29 44H48V44.5H29V44Z" fill="#FFA600"/>
<path d="M52 44H48V44.5H52V44Z" fill="#BD5500"/>
<path d="M29 47H48V47.5H29V47Z" fill="#FFA600"/>
<path d="M52 47H48V47.5H52V47Z" fill="#BD5500"/>
<path d="M31.5 29H46L46.2154 29.5H31L31.5 29Z" fill="#FFA600"/>
<path d="M49.5 29H46L46.5 29.5H50L49.5 29Z" fill="#BD5500"/>
<path d="M29 35H48V35.5H29V35Z" fill="#FFA600"/>
<path d="M52 35H48V35.5H52V35Z" fill="#BD5500"/>
<path d="M29 41H48V41.5H29V41Z" fill="#FFA600"/>
<path d="M52 41H48V41.5H52V41Z" fill="#BD5500"/>
</g>
<rect x="37.46" y="14.625" width="6.70833" height="1.91667" rx="0.1" fill="#FF5C00" stroke="url(#paint20_linear_4368_2982)" stroke-opacity="0.4" stroke-width="0.5" stroke-linejoin="round"/>
<rect x="36.5015" y="14.625" width="6.70833" height="1.91667" rx="0.1" fill="#FF8400" stroke="url(#paint21_linear_4368_2982)" stroke-opacity="0.4" stroke-width="0.5" stroke-linejoin="round"/>
<path d="M31.875 35.7085H45.2917V44.2502C45.2917 45.3547 44.3962 46.2502 43.2917 46.2502H33.875C32.7704 46.2502 31.875 45.3547 31.875 44.2502V35.7085Z" fill="#FFA600"/>
<path fill-rule="evenodd" clip-rule="evenodd" d="M32.0649 45.1018C32.3848 45.7804 33.0751 46.2502 33.8751 46.2502H43.2918C44.3963 46.2502 45.2918 45.3547 45.2918 44.2502V35.7085H44.3334V43.2917C44.3334 44.3963 43.438 45.2917 42.3334 45.2917H32.9168C32.6121 45.2917 32.3234 45.2236 32.0649 45.1018Z" fill="#FF8400"/>
<path d="M31.875 34.7915C31.875 34.2392 32.3227 33.7915 32.875 33.7915H44.2917C44.844 33.7915 45.2917 34.2392 45.2917 34.7915V35.7082H31.875V34.7915Z" fill="#FF8400" stroke="url(#paint22_linear_4368_2982)" stroke-opacity="0.4" stroke-width="0.5" stroke-linejoin="round"/>
<defs>
<linearGradient id="paint0_linear_4368_2982" x1="15" y1="53.5717" x2="15.0422" y2="51.1539" gradientUnits="userSpaceOnUse">
<stop stop-color="#1B217C"/>
<stop offset="1" stop-color="#1B217C" stop-opacity="0"/>
</linearGradient>
<linearGradient id="paint1_linear_4368_2982" x1="23.551" y1="33.1703" x2="29.5852" y2="14.5531" gradientUnits="userSpaceOnUse">
<stop stop-color="#001BC1"/>
<stop offset="1" stop-color="#12B3FD"/>
</linearGradient>
<linearGradient id="paint2_linear_4368_2982" x1="25.082" y1="32.5983" x2="32.746" y2="32.2251" gradientUnits="userSpaceOnUse">
<stop stop-color="white"/>
<stop offset="1" stop-color="white" stop-opacity="0"/>
</linearGradient>
<linearGradient id="paint3_linear_4368_2982" x1="17.3725" y1="-4.20131" x2="17.3725" y2="56.9282" gradientUnits="userSpaceOnUse">
<stop stop-color="#1B217C"/>
<stop offset="1" stop-color="#1B217C" stop-opacity="0"/>
</linearGradient>
<linearGradient id="paint4_linear_4368_2982" x1="17.3725" y1="-4.20131" x2="17.3725" y2="56.9282" gradientUnits="userSpaceOnUse">
<stop stop-color="#1B217C"/>
<stop offset="1" stop-color="#1B217C" stop-opacity="0"/>
</linearGradient>
<linearGradient id="paint5_linear_4368_2982" x1="25.2051" y1="1.26136" x2="-6.56409" y2="90.0313" gradientUnits="userSpaceOnUse">
<stop stop-color="#F1F8FF"/>
<stop offset="1" stop-color="#85C5FF"/>
</linearGradient>
<linearGradient id="paint6_linear_4368_2982" x1="13" y1="54.5" x2="28.5" y2="8.49999" gradientUnits="userSpaceOnUse">
<stop stop-color="#8ECAFF"/>
<stop offset="1" stop-color="#D9EDFF"/>
</linearGradient>
<linearGradient id="paint7_linear_4368_2982" x1="29.4998" y1="52.5" x2="35.4998" y2="1.5" gradientUnits="userSpaceOnUse">
<stop stop-color="#AED9FF"/>
<stop offset="1" stop-color="#AED9FF" stop-opacity="0"/>
</linearGradient>
<linearGradient id="paint8_linear_4368_2982" x1="11.4998" y1="12.5" x2="43.9998" y2="27.5" gradientUnits="userSpaceOnUse">
<stop stop-color="#1B217C"/>
<stop offset="1" stop-color="#1B217C" stop-opacity="0"/>
</linearGradient>
<linearGradient id="paint9_linear_4368_2982" x1="5.03158" y1="-1.95773" x2="5.03158" y2="11.0486" gradientUnits="userSpaceOnUse">
<stop stop-color="#1B217C"/>
<stop offset="1" stop-color="#1B217C" stop-opacity="0"/>
</linearGradient>
<linearGradient id="paint10_linear_4368_2982" x1="37.46" y1="32.1519" x2="50.1635" y2="20.4651" gradientUnits="userSpaceOnUse">
<stop stop-color="#1B217C"/>
<stop offset="1" stop-color="#1B217C" stop-opacity="0"/>
</linearGradient>
<linearGradient id="paint11_linear_4368_2982" x1="49.67" y1="54.5554" x2="44.8116" y2="54.1625" gradientUnits="userSpaceOnUse">
<stop stop-color="white"/>
<stop offset="1" stop-color="white" stop-opacity="0"/>
</linearGradient>
<linearGradient id="paint12_linear_4368_2982" x1="37.2115" y1="54.5554" x2="32.3531" y2="54.1625" gradientUnits="userSpaceOnUse">
<stop stop-color="white"/>
<stop offset="1" stop-color="white" stop-opacity="0"/>
</linearGradient>
<linearGradient id="paint13_linear_4368_2982" x1="48.2421" y1="54.5554" x2="42.7006" y2="54.0432" gradientUnits="userSpaceOnUse">
<stop stop-color="white"/>
<stop offset="1" stop-color="white" stop-opacity="0"/>
</linearGradient>
<linearGradient id="paint14_linear_4368_2982" x1="35.7836" y1="54.5554" x2="30.2421" y2="54.0432" gradientUnits="userSpaceOnUse">
<stop stop-color="white"/>
<stop offset="1" stop-color="white" stop-opacity="0"/>
</linearGradient>
<linearGradient id="paint15_linear_4368_2982" x1="57.9454" y1="65.7739" x2="48.6389" y2="20.3633" gradientUnits="userSpaceOnUse">
<stop stop-color="#FF8400"/>
<stop offset="1" stop-color="#FFA600"/>
</linearGradient>
<linearGradient id="paint16_linear_4368_2982" x1="52.3763" y1="64.4583" x2="24.5971" y2="62.3188" gradientUnits="userSpaceOnUse">
<stop stop-color="white"/>
<stop offset="1" stop-color="white" stop-opacity="0"/>
</linearGradient>
<linearGradient id="paint17_linear_4368_2982" x1="30.9168" y1="62.2743" x2="57.1929" y2="25.3429" gradientUnits="userSpaceOnUse">
<stop stop-color="#1B217C"/>
<stop offset="1" stop-color="#1B217C" stop-opacity="0"/>
</linearGradient>
<linearGradient id="paint18_linear_4368_2982" x1="46.037" y1="60.1991" x2="31.1822" y2="25.6137" gradientUnits="userSpaceOnUse">
<stop stop-color="#FFA600"/>
<stop offset="1" stop-color="#FFEEBD"/>
</linearGradient>
<linearGradient id="paint19_linear_4368_2982" x1="29" y1="62.2743" x2="55.2761" y2="25.3429" gradientUnits="userSpaceOnUse">
<stop stop-color="#1B217C"/>
<stop offset="1" stop-color="#1B217C" stop-opacity="0"/>
</linearGradient>
<linearGradient id="paint20_linear_4368_2982" x1="44.2999" y1="17.8194" x2="35.4461" y2="14.9553" gradientUnits="userSpaceOnUse">
<stop stop-color="white"/>
<stop offset="1" stop-color="white" stop-opacity="0"/>
</linearGradient>
<linearGradient id="paint21_linear_4368_2982" x1="43.3414" y1="17.8194" x2="34.4876" y2="14.9553" gradientUnits="userSpaceOnUse">
<stop stop-color="white"/>
<stop offset="1" stop-color="white" stop-opacity="0"/>
</linearGradient>
<linearGradient id="paint22_linear_4368_2982" x1="45.555" y1="36.9859" x2="31.7659" y2="28.0648" gradientUnits="userSpaceOnUse">
<stop stop-color="white"/>
<stop offset="1" stop-color="white" stop-opacity="0"/>
</linearGradient>
</defs>
</svg>
