<svg width="24" height="24" viewBox="0 0 24 24" fill="none" xmlns="http://www.w3.org/2000/svg"><path fill-rule="evenodd" clip-rule="evenodd" d="M9.4594 1C7.55268 1 5.91102 2.34584 5.53708 4.21554L5.38019 5H4C2.34315 5 1 6.34315 1 8V18C1 20.7614 3.23858 23 6 23H18C20.7614 23 23 20.7614 23 18V8C23 6.34315 21.6569 5 20 5H18.6198L18.4629 4.21554C18.089 2.34584 16.4473 1 14.5406 1H9.4594ZM16.5802 5L16.5017 4.60777C16.3148 3.67292 15.4939 3 14.5406 3H9.4594C8.50604 3 7.68521 3.67292 7.49824 4.60777L7.4198 5H16.5802ZM21 10.4338V8C21 7.44772 20.5523 7 20 7H4C3.44772 7 3 7.44772 3 8V10.4338L6.80196 12.715C7.11279 12.9015 7.46846 13 7.83095 13H9C9 11.8954 9.89543 11 11 11H13C14.1046 11 15 11.8954 15 13H16.169C16.5315 13 16.8872 12.9015 17.198 12.715L21 10.4338ZM14.8293 15C14.4175 16.1652 13.3062 17 12 17C10.6938 17 9.58254 16.1652 9.17071 15H7.83095C7.10598 15 6.39463 14.803 5.77297 14.43L3 12.7662V18C3 19.6569 4.34315 21 6 21H18C19.6569 21 21 19.6569 21 18V12.7662L18.227 14.43C17.6054 14.803 16.894 15 16.169 15H14.8293ZM11 13H13V14C13 14.5523 12.5523 15 12 15C11.4477 15 11 14.5523 11 14V13Z" fill="currentColor"></path></svg>