<svg width="24" height="24" viewBox="0 0 24 24" fill="none" xmlns="http://www.w3.org/2000/svg"><path fill-rule="evenodd" clip-rule="evenodd" d="M1 3C1 1.89543 1.89543 1 3 1H12C13.1046 1 14 1.89543 14 3V7C14 7.55228 13.5523 8 13 8C12.4477 8 12 7.55228 12 7V3L3 3V21H10V15.0001C9.71365 14.9999 9.42943 14.8774 9.23177 14.6402C8.87821 14.216 8.93553 13.5854 9.35981 13.2318L14.7196 8.76532C15.4613 8.14724 16.5387 8.14724 17.2804 8.76532L19 10.1983V10C19 9.44771 19.4477 9 20 9C20.5523 9 21 9.44771 21 10V11.865L22.6402 13.2318C23.0645 13.5854 23.1218 14.216 22.7682 14.6402C22.5706 14.8774 22.2864 14.9999 22 15.0001V21C22 22.1046 21.1046 23 20 23H3C1.89543 23 1 22.1046 1 21V3ZM20 13.6351L16 10.3018L12 13.6351V21H15V18C15 17.4477 15.4477 17 16 17C16.5523 17 17 17.4477 17 18V21H20V13.6351Z" fill="currentColor"></path><path d="M5.5 5C5.22386 5 5 5.22386 5 5.5V6.5C5 6.77614 5.22386 7 5.5 7H6.5C6.77614 7 7 6.77614 7 6.5V5.5C7 5.22386 6.77614 5 6.5 5H5.5Z" fill="currentColor"></path><path d="M8 5.5C8 5.22386 8.22386 5 8.5 5H9.5C9.77614 5 10 5.22386 10 5.5V6.5C10 6.77614 9.77614 7 9.5 7H8.5C8.22386 7 8 6.77614 8 6.5V5.5Z" fill="currentColor"></path><path d="M5.5 9C5.22386 9 5 9.22386 5 9.5V10.5C5 10.7761 5.22386 11 5.5 11H6.5C6.77614 11 7 10.7761 7 10.5V9.5C7 9.22386 6.77614 9 6.5 9H5.5Z" fill="currentColor"></path><path d="M8 9.5C8 9.22386 8.22386 9 8.5 9H9.5C9.77614 9 10 9.22386 10 9.5V10.5C10 10.7761 9.77614 11 9.5 11H8.5C8.22386 11 8 10.7761 8 10.5V9.5Z" fill="currentColor"></path></svg>