<svg width="24" height="24" viewBox="0 0 24 24" fill="none" xmlns="http://www.w3.org/2000/svg"><path fill-rule="evenodd" clip-rule="evenodd" d="M14 5.5C14 3.567 15.567 2 17.5 2C19.433 2 21 3.567 21 5.5C21 7.433 19.433 9 17.5 9C15.567 9 14 7.433 14 5.5ZM17.5 4C16.6716 4 16 4.67157 16 5.5C16 6.32843 16.6716 7 17.5 7C18.3284 7 19 6.32843 19 5.5C19 4.67157 18.3284 4 17.5 4Z" fill="currentColor"></path><path fill-rule="evenodd" clip-rule="evenodd" d="M8.49999 3C6.0147 3 3.99999 5.01472 3.99999 7.5C3.99999 9.98528 6.0147 12 8.49999 12C10.9853 12 13 9.98528 13 7.5C13 5.01472 10.9853 3 8.49999 3ZM5.99999 7.5C5.99999 6.11929 7.11927 5 8.49999 5C9.8807 5 11 6.11929 11 7.5C11 8.88071 9.8807 10 8.49999 10C7.11927 10 5.99999 8.88071 5.99999 7.5Z" fill="currentColor"></path><path fill-rule="evenodd" clip-rule="evenodd" d="M12.5856 13.3129C11.5819 12.9304 10.5779 13.2765 9.98294 13.4901C9.51657 13.6575 9.01858 13.7481 8.49999 13.7481C7.98139 13.7481 7.4834 13.6575 7.01703 13.4901C6.42209 13.2765 5.41811 12.9304 4.41441 13.3129C4.06227 13.4471 3.72293 13.6191 3.4014 13.8264C2.5379 14.3832 1.83509 15.1746 1.35434 16.1105C1.00897 16.7725 0.913715 17.5459 1.07893 18.274C1.2446 19.004 1.66689 19.6611 2.28779 20.0865L2.2962 20.0921C4.15805 21.3402 6.30457 22.004 8.49999 22C10.6954 22.004 12.842 21.3402 14.7038 20.0922L14.7122 20.0864C15.3331 19.6611 15.7554 19.004 15.921 18.274C15.9788 18.0196 16.0047 17.7597 15.9993 17.501L16 17.5C15.9897 17.0187 15.8701 16.5408 15.6456 16.1105C15.1649 15.1746 14.4621 14.3833 13.5986 13.8264C13.277 13.6191 12.9377 13.4471 12.5856 13.3129ZM10.6588 15.3725C11.3081 15.1393 11.6416 15.0935 11.8732 15.1818C12.0515 15.2497 12.2261 15.3337 12.3952 15.4335C12.4354 15.4572 12.4752 15.4818 12.5147 15.5072C12.767 15.6699 13.0019 15.8666 13.2141 16.0932C13.4677 16.364 13.6887 16.6775 13.8678 17.0268L13.8717 17.0342C13.994 17.2678 14.0331 17.5562 13.9706 17.8314C13.9087 18.1042 13.7595 18.3134 13.5852 18.4342C12.0442 19.4657 10.2861 20.0036 8.50202 20H8.49795C6.7139 20.0036 4.95572 19.4657 3.41478 18.4342C3.24044 18.3133 3.09126 18.1042 3.02934 17.8314C2.96689 17.5562 3.00597 17.2679 3.1283 17.0342L3.13212 17.0267C3.46109 16.3853 3.93143 15.8644 4.48531 15.5072C4.69124 15.3744 4.90619 15.2658 5.12673 15.1818C5.35842 15.0935 5.69183 15.1393 6.34121 15.3725C7.01976 15.6161 7.74616 15.7481 8.49999 15.7481C9.25381 15.7481 9.98021 15.6161 10.6588 15.3725Z" fill="currentColor"></path><path d="M16.6845 10.4077C16.4106 10.3323 16.0436 10.2312 15.6858 10.1873C15.2387 10.1325 14.6847 10.1464 14.1385 10.4367C14.0199 10.4997 13.9042 10.5688 13.7915 10.6437C13.3317 10.9497 13.207 11.5704 13.5129 12.0302C13.8188 12.49 14.4396 12.6148 14.8994 12.3088C14.9578 12.27 15.0171 12.2347 15.0771 12.2027C15.1307 12.1743 15.226 12.1459 15.4423 12.1724C15.6419 12.1969 15.8423 12.2515 16.1176 12.3265L16.1194 12.327C16.1772 12.3428 16.2385 12.3595 16.3036 12.3769C16.6875 12.4798 17.0885 12.5343 17.5 12.5343C17.9116 12.5343 18.3126 12.4798 18.6965 12.3769C18.7623 12.3592 18.8241 12.3424 18.8825 12.3265C19.1577 12.2515 19.3582 12.1969 19.5577 12.1724C19.774 12.1459 19.8694 12.1743 19.923 12.2027C19.983 12.2347 20.0423 12.27 20.1007 12.3088C20.436 12.5319 20.729 12.8631 20.9368 13.2811L20.9405 13.2885C20.9959 13.3976 21.0165 13.541 20.9859 13.6799C20.9559 13.8164 20.8882 13.9009 20.8349 13.9397C19.8185 14.641 18.666 15.0024 17.5021 15C16.9499 14.9988 16.5012 15.4456 16.5 15.9979C16.4989 16.5502 16.9457 16.9988 17.4979 17C19.0887 17.0033 20.6391 16.5069 21.9783 15.5807L21.9867 15.5748C22.4846 15.2229 22.8119 14.6885 22.9392 14.1096C23.0662 13.5323 22.994 12.9178 22.726 12.3874C22.3732 11.6792 21.8542 11.0733 21.2086 10.6437C21.0959 10.5688 20.9801 10.4997 20.8616 10.4367C20.3154 10.1464 19.7614 10.1325 19.3143 10.1873C18.9565 10.2312 18.5895 10.3323 18.3155 10.4077C18.2667 10.4212 18.2209 10.4338 18.1786 10.4451C17.9611 10.5034 17.7342 10.5343 17.5 10.5343C17.2659 10.5343 17.039 10.5034 16.8215 10.4451C16.7792 10.4338 16.7333 10.4211 16.6845 10.4077Z" fill="currentColor"></path></svg>